/* XPM */
static char *_fa03bb71b6c435ef951ed54d3766a58DMh9jlsVGstMN2t4[] = {
/* columns rows colors chars-per-pixel */
"32 32 251 2 ",
"   c None",
".  c #721D1E",
"X  c #731C1F",
"o  c #5C2808",
"O  c #5C2908",
"+  c #5C2909",
"@  c #5D2909",
"#  c #5D2A09",
"$  c #5C2B0A",
"%  c #5D2B0B",
"&  c #5E2A0A",
"*  c #5A2D0B",
"=  c #5B2D0B",
"-  c #5C2D0A",
";  c #5C2C0B",
":  c #5C2D0B",
">  c #5D2D0B",
",  c #5D2C0C",
"<  c #5C2D0C",
"1  c #5D2D0C",
"2  c #5E2C0C",
"3  c #66270C",
"4  c #6E250E",
"5  c #6D270F",
"6  c #602B0C",
"7  c #602B0D",
"8  c #622B0D",
"9  c #612A0F",
"0  c #65290E",
"q  c #66290E",
"w  c #68280E",
"e  c #68290E",
"r  c #652712",
"t  c #662712",
"y  c #672712",
"u  c #672416",
"i  c #6C2710",
"p  c #6D2710",
"a  c #6E2610",
"s  c #6B2317",
"d  c #6A2416",
"f  c #612910",
"g  c #632910",
"h  c #642811",
"j  c #6C2811",
"k  c #6D2811",
"l  c #6E2912",
"z  c #6C2A12",
"x  c #6E2119",
"c  c #6F201A",
"v  c #702510",
"b  c #742411",
"n  c #752411",
"m  c #792212",
"M  c #782312",
"N  c #7E2014",
"B  c #7C2214",
"V  c #722019",
"C  c #623314",
"Z  c #7C1724",
"A  c #7F1527",
"S  c #7A1823",
"D  c #5F3D25",
"F  c #673D24",
"G  c #663E24",
"H  c #683E25",
"J  c #5D422B",
"K  c #5D422C",
"L  c #5C432C",
"P  c #5E422C",
"I  c #6D4328",
"U  c #605245",
"Y  c #63574B",
"T  c #655851",
"R  c #5F615B",
"E  c #5F635D",
"W  c #7D665C",
"Q  c #676B65",
"!  c #79736A",
"~  c #617579",
"^  c #62787D",
"/  c #61797F",
"(  c #62797E",
")  c #7D7870",
"_  c #7F7971",
"`  c #831F14",
"'  c #8E1A16",
"]  c #8E1B17",
"[  c #8B1C15",
"{  c #891D16",
"}  c #8A1C16",
"|  c #8B1C16",
" . c #8C1C16",
".. c #8E1C19",
"X. c #981617",
"o. c #991617",
"O. c #901A17",
"+. c #991618",
"@. c #9A161A",
"#. c #9A171A",
"$. c #9F151B",
"%. c #9C161A",
"&. c #9D161A",
"*. c #9A151C",
"=. c #911A18",
"-. c #AF0F1F",
";. c #B20C1E",
":. c #B20D1E",
">. c #B40C1E",
",. c #A4131B",
"<. c #A7121D",
"1. c #A8101B",
"2. c #A9111D",
"3. c #AD101E",
"4. c #802014",
"5. c #83231A",
"6. c #8A0E2F",
"7. c #821526",
"8. c #8C1325",
"9. c #84112B",
"0. c #801428",
"q. c #86102D",
"w. c #9E1E24",
"e. c #8A0D30",
"r. c #8B0C31",
"t. c #8B0C32",
"y. c #8C0C31",
"u. c #8D0C32",
"i. c #900C30",
"p. c #930638",
"a. c #940638",
"s. c #950638",
"d. c #9B013D",
"f. c #9A023D",
"g. c #9B013E",
"h. c #9D013D",
"j. c #9C013E",
"k. c #9C003F",
"l. c #9D003F",
"z. c #9E003F",
"x. c #A30C29",
"c. c #B20C23",
"v. c #BE0921",
"b. c #BD0A22",
"n. c #B80C20",
"m. c #A30632",
"M. c #A1003D",
"N. c #AA0138",
"B. c #A8003B",
"V. c #AA003A",
"C. c #AF0038",
"Z. c #B40036",
"A. c #B50037",
"S. c #BA0034",
"D. c #B00038",
"F. c #B10038",
"G. c #8E2425",
"H. c #C30722",
"J. c #C60624",
"K. c #C70624",
"L. c #C80524",
"P. c #CA0524",
"I. c #CA0525",
"U. c #CB0525",
"Y. c #C90624",
"T. c #CC0425",
"R. c #CD0425",
"E. c #CF0426",
"W. c #C00922",
"Q. c #C9002E",
"!. c #CD002D",
"~. c #CC002E",
"^. c #D10326",
"/. c #D20326",
"(. c #D30227",
"). c #D60127",
"_. c #D90027",
"`. c #DA0027",
"'. c #DB0027",
"]. c #D20129",
"[. c #D2002B",
"{. c #D50029",
"}. c #D80028",
"|. c #D90028",
" X c #DA0028",
".X c #DB0028",
"XX c #DB0029",
"oX c #DD0029",
"OX c #C10030",
"+X c #C30030",
"@X c #C20031",
"#X c #9C0040",
"$X c #9D0040",
"%X c #9E0040",
"&X c #9F0040",
"*X c #9F0041",
"=X c #805F49",
"-X c #856E6B",
";X c #947F6F",
":X c #617B81",
">X c #627A80",
",X c #627B81",
"<X c #647B80",
"1X c #687F85",
"2X c #688087",
"3X c #69838A",
"4X c #6C878F",
"5X c #738F98",
"6X c #9A8E83",
"7X c #85908F",
"8X c #879393",
"9X c #879595",
"0X c #A39589",
"qX c #81A1AC",
"wX c #82A3AF",
"eX c #86A6B2",
"rX c #87A8B4",
"tX c #88A9B5",
"yX c #90AAB1",
"uX c #93AFB8",
"iX c #94AFB9",
"pX c #8EB1BE",
"aX c #94B1BA",
"sX c #9DB6BF",
"dX c #93B7C4",
"fX c #93B7C5",
"gX c #94B9C8",
"hX c #9AC0CF",
"jX c #9AC0D0",
"kX c #9AC1D0",
"lX c #9BC1D0",
"zX c #9BC2D1",
"xX c #9BC2D2",
"cX c #9CC2D1",
"vX c #9CC2D2",
"bX c #9CC3D2",
"nX c #9CC3D3",
"mX c #9EC3D2",
"MX c #9CC4D4",
"NX c #9DC5D5",
"BX c #A0C6D5",
"VX c #A3C7D5",
"CX c #A5C9D7",
"ZX c #A6CAD8",
"AX c #C7CCCB",
"SX c #CAD6D9",
"DX c #CEE7F1",
"FX c #D5EEF9",
"GX c #DCF2FA",
"HX c #DDF2FB",
"JX c #E8FEFF",
/* pixels */
"                      : = = = = = =                             ",
"                    a ] O.O.O.O.O.O.`                           ",
"                2 0 { ).|.|.|.oX|.|.3.b b                       ",
"              2 2 =.(.|.|.|.|.|.|._.).(.U.b                     ",
"            2 2 &.P.|.|.|.|.|.|.|.|.|.|.(.b : 2 2 2             ",
"            0 @.P.oXoX|.oX|.|.|.|.|.|.|._.3.M : e #.M           ",
"          $ 3 <.>.;.:.:.:.L.|.|.|.|.|.|.|.|.2.b v U.&.M         ",
"        $ C I H F F F G G w.^.|.|.|.|.|.|.|.|.3.a W.).&.2       ",
"        $ =XSXsXuXaXiXiXaXW ] ).|._.|.|.|.|.oX-.8 a b.&.2       ",
"      $ ;XAXGXCXcXcXzXzXmXyX-X..U.oX|.|.|.|.|.U.2.e n.&.<       ",
"      $ 0XJXGXCXgXcXzXzXhXMX9Xk U.oX|.|.|.|.|.|.Y.5 n.,.2       ",
"      o 6XFXDXVXMXhXcXhXcXMX9Xk P._.|.|.|.|._.oXY.5 n.&.<       ",
"      $ -XNXmXhXcXcXMXcXcXcX7Xk P.|.|.|.|.|.|.|.J.k n.$.<       ",
"      o _ NXhXMXcXcXgXzXcXwXQ k P.|.|.|.|.|.|.|.J.k n.$.<       ",
"      $ _ MXhXhXcXcXcXzXwX4XR k P.|.|.|.|.|.|.|.J.5 n.$.2       ",
"      $ ) NXMXhXpXeXtXeX3X/ E k P.oX|.|.|.|.|.|.Y.5 n.$.<       ",
"      $ ! fXdXdX5X/ <X>X>X~ T N U.|.|.|.|.|.|.|.K.a c.*.2       ",
"      $ Y 2X2X2X( / / / / U 5.U.|.|.|.|.|.|.|.|.K.i i.7.:       ",
"        D J J J J J J L P G.H.|.|.|.|.|.|.|.|.~.m.y y.A :       ",
"        : 4 o.@.o.@.o.@.o.v.|.|.|.|.|.|.|.|.~.D.p.h y.A :       ",
"        = N _.'.'.oX'.oXoX_.|.|.|.|.|.|.|.!.C.%Xs.h y.A :       ",
"        = N [.).|.|.|._.|.|.|.|.|.|.|.|.{.V.%XM.s.h y.A :       ",
"        = V V.{.|.|.|.|._._.|.|.|.|.|.|.{.V.#Xk.s.y y.A :       ",
"        = V k.D.Z.x.[ { { { <.).|.oX_.[.Z.M.k.k.p.y r.7.6       ",
"        : V f.#X%Xr.S . 9 u 8.@X@X@X+XS.k.k.%X%Xs.y y.0.:       ",
"        : V k.k.k.%Xf.f.s A %X#X%X%XM.k.k.k.k.M.p.y 9.S :       ",
"        : x k.k.k.M.k.f.s A %X%Xk.k.k.k.M.%Xk.k.p.h h h         ",
"        : V k.k.k.k.k.f.s A %X%Xk.k.k.k.k.%X%X%Xp.h             ",
"        : x k.%X%X%X%Xf.s 0.%X%X&X%X%X%X%X%X%X%Xs.h             ",
"          x r.y.r.y.r.r.d S r.r.y.y.r.r.r.r.r.r.q.h             ",
"            2 9 9 2 2 8     9 8 2 8 8 2 8 2 2 8 8               ",
"                                                                "
};
