/* XPM */
static char *c36d0ca657c347759667af42a72fcc4aoMqQiRykgRd5USOC[] = {
/* columns rows colors chars-per-pixel */
"32 32 176 2 ",
"   c None",
".  c #711F1B",
"X  c #741C1E",
"o  c #751C1E",
"O  c #5A2D0B",
"+  c #5B2D0B",
"@  c #5C2D0B",
"#  c #5D2D0B",
"$  c #5F2B0D",
"%  c #5D2C0C",
"&  c #5C2D0C",
"*  c #5D2D0C",
"=  c #5E2C0C",
"-  c #5F2C0C",
";  c #6D270F",
":  c #602B0D",
">  c #612A0F",
",  c #632A0E",
"<  c #622A0F",
"1  c #642A0D",
"2  c #65290E",
"3  c #66290E",
"4  c #67290E",
"5  c #68280E",
"6  c #6A280F",
"7  c #652711",
"8  c #662613",
"9  c #672613",
"0  c #672514",
"q  c #6C2611",
"w  c #6E2610",
"e  c #6F2610",
"r  c #682514",
"t  c #692515",
"y  c #6A2415",
"u  c #632810",
"i  c #622910",
"p  c #6D2118",
"a  c #6D2119",
"s  c #6D2218",
"d  c #762311",
"f  c #772312",
"g  c #702510",
"h  c #732411",
"j  c #722511",
"k  c #742411",
"l  c #752411",
"z  c #752116",
"x  c #7C2113",
"c  c #7E2113",
"v  c #7B1724",
"b  c #7F1527",
"n  c #7E1626",
"m  c #771A20",
"M  c #791922",
"N  c #7A1823",
"B  c #7A1923",
"V  c #7B1824",
"C  c #811F14",
"Z  c #871D15",
"A  c #841F15",
"S  c #8E1B17",
"D  c #8F1B17",
"F  c #8A1C16",
"G  c #8B1C16",
"H  c #851C18",
"J  c #901A17",
"K  c #991719",
"L  c #9A171A",
"P  c #931918",
"I  c #AF0F1E",
"U  c #B10E1F",
"Y  c #B20E1F",
"T  c #B30E1F",
"R  c #A5131C",
"E  c #A2141C",
"W  c #A9111D",
"Q  c #A8121D",
"!  c #AB101E",
"~  c #AD101E",
"^  c #812014",
"/  c #870F2D",
"(  c #870F2E",
")  c #880F2E",
"_  c #890E2F",
"`  c #8A0E2E",
"'  c #83122A",
"]  c #84122A",
"[  c #801428",
"{  c #85102C",
"}  c #84112C",
"|  c #87102D",
" . c #8D0B32",
".. c #8E0A33",
"X. c #8F0A33",
"o. c #8B0C31",
"O. c #8C0C31",
"+. c #8E0A34",
"@. c #8F0A34",
"#. c #930737",
"$. c #900836",
"%. c #920836",
"&. c #950539",
"*. c #960539",
"=. c #940638",
"-. c #97043A",
";. c #98033B",
":. c #980538",
">. c #98043B",
",. c #9B013D",
"<. c #99033C",
"1. c #9A023C",
"2. c #9B023D",
"3. c #9E023C",
"4. c #9C003E",
"5. c #9C013E",
"6. c #9D003F",
"7. c #9F003E",
"8. c #9E003F",
"9. c #9F003F",
"0. c #A90E23",
"q. c #A70A2B",
"w. c #B50D20",
"e. c #BB0B21",
"r. c #BE0A21",
"t. c #BE0922",
"y. c #BD0A22",
"u. c #BE0A22",
"i. c #B80C21",
"p. c #B90C21",
"a. c #BD052A",
"s. c #A3003D",
"d. c #A8003B",
"f. c #AF003A",
"g. c #A9003D",
"h. c #B50037",
"j. c #BB0231",
"k. c #BD0033",
"l. c #B80037",
"z. c #C50723",
"x. c #CB0524",
"c. c #CA0525",
"v. c #CB0525",
"b. c #C90624",
"n. c #CC0525",
"m. c #CE0425",
"M. c #C10923",
"N. c #C20823",
"B. c #C30823",
"V. c #CD002D",
"C. c #D10326",
"Z. c #D20326",
"A. c #D30227",
"S. c #D50127",
"D. c #D60127",
"F. c #D70127",
"G. c #D40227",
"H. c #D50227",
"J. c #D60227",
"K. c #D0002B",
"L. c #D70128",
"P. c #D70029",
"I. c #D5002A",
"U. c #D0002E",
"Y. c #D80028",
"T. c #D90028",
"R. c #DA0028",
"E. c #DB0028",
"W. c #DB0029",
"Q. c #DD0029",
"!. c #C30031",
"~. c #C40031",
"^. c #9E0040",
"/. c #9F0040",
"(. c #9F0041",
"). c #A00040",
/* pixels */
"                        O O @ @ O @ O                           ",
"                      h S J J J J J J ^                         ",
"                  h k F F.T.T.T.T.T.Q.W k k                     ",
"              - 3 Y C.F.T.T.T.T.T.T.T.F.C.c.k 1 1               ",
"            - 3 Y C.T.T.R.R.R.R.T.T.R.R.R.F.M.C O -             ",
"          - h R F.Q.T.T.R.R.R.Q.Q.T.Q.T.T.T.T.i.A -             ",
"          O A T.T.u.Y Y Y Y Y Y Y Y Y Y Y T F.Q.~ -             ",
"        - 3 D L.c.G ; w w ; w w ; w w w w f e.F.Y 6 -           ",
"        - K C.c.x ~ n.c.c.c.c.c.c.c.c.c.n.B.x ~ C.i.6           ",
"        O E M.F ~ n.Q.T.T.T.T.T.T.T.T.T.R.R.i.P R z.3           ",
"        S u.Y ; n.T.T.T.T.T.T.T.T.T.T.T.R.R.T.F F n.L k         ",
"      3 u.Q.Y w c.T.T.T.T.T.T.T.T.T.T.F.R.R.T.F F T.T.x         ",
"      1 u.Q.Y w c.T.T.T.T.T.T.T.T.T.T.T.T.T.T.F F T.C.x         ",
"      1 u.Q.Y w c.Q.T.F.T.T.T.T.T.T.T.T.T.T.T.F F T.L.x         ",
"      1 u.Q.Y w c.R.R.R.T.T.T.T.T.T.T.T.T.T.T.F F T.F.x         ",
"      3 u.Q.Y ; c.R.R.R.T.T.T.T.T.T.T.T.T.T.T.F F T.F.x         ",
"      1 y.Q.w.w c.T.T.T.T.T.T.T.T.T.T.T.T.T.T.F F T.L.x         ",
"      1 y.Q.I w c.T.T.T.T.T.T.T.T.T.T.T.T.T.T.F F T.C.x         ",
"      3 u.Q.w.; c.T.T.T.T.T.T.T.T.T.T.T.T.T.T.F F T.L.x         ",
"      > q.U.w.w n.T.T.T.T.T.T.T.T.T.T.T.T.T.T.F S L.j.z         ",
"      1 @.l.0.w a.L.T.T.T.T.T.T.T.T.R.F.T.L.V.H A ~.8.s         ",
"      > @.).o.u :.~.L.T.T.T.T.T.T.T.R.R.T.K.d.X o 8.2.s         ",
"      i @.^.) 0 &.s.k.T.T.T.T.T.T.T.T.Q.V.d.8.X o 8.2.s         ",
"      i @.^.&.} m %.g.h.h.h.h.h.h.h.h.h.f.2.v n ..8.2.s         ",
"      i +.^.^.>.m b } } } } { { } { } { } ' m ..^.8.2.p         ",
"      1 +.^.^.^.^.M 0 0 t 0 t u - 0 0 0 0 s =.8.8.8.2.p         ",
"      i O.^.8.8.^.-.-.-.-.-.2.} 0 %.;.;.&.2.2.8.2.^.2.s         ",
"      - t ) ^.2.^.^.^.^.^.^.^.{ 0 -.^.2.8.8.8.8.^.&.. >         ",
"        - b ^.^.^.^.^.^.^.^.^.( 0 >.^.^.8.^.^.^.).#.i @         ",
"        & B O.o.o.o.o.o.o.o.o.V u ) o.o.o.o.o.o.O.{ u           ",
"          1 > 1 1 - - i 1 - i - - - 1 - > - - > > -             ",
"                                                                "
};
