/* XPM */
static char *result[] = {
/* columns rows colors chars-per-pixel */
"32 32 124 2 ",
"   c #741D1E",
".  c #5D2D0B",
"X  c #5E3A1F",
"o  c #6C270F",
"O  c #612B0D",
"+  c #68280E",
"@  c #652712",
"#  c #6A2514",
"$  c #632810",
"%  c #6E2119",
"&  c #6F2E1B",
"*  c #742411",
"=  c #7C2113",
"-  c #70201A",
";  c #7C271B",
":  c #7A2C1B",
">  c #603216",
",  c #7D1625",
"<  c #771B20",
"1  c #7B1824",
"2  c #5F3920",
"3  c #653B21",
"4  c #733624",
"5  c #743826",
"6  c #7A322A",
"7  c #5D422C",
"8  c #5D4630",
"9  c #6C4226",
"0  c #66442C",
"q  c #614634",
"w  c #625245",
"e  c #6B5643",
"r  c #6E5C48",
"t  c #635B54",
"y  c #645D58",
"u  c #77614D",
"i  c #60625C",
"p  c #636664",
"a  c #7E776F",
"s  c #616F70",
"d  c #617375",
"f  c #62767A",
"g  c #62797E",
"h  c #821F14",
"j  c #8D1C16",
"k  c #941615",
"l  c #991617",
"z  c #901A17",
"x  c #96161B",
"c  c #9A1619",
"v  c #951919",
"b  c #AB0F1C",
"n  c #B40C1E",
"m  c #B80B1F",
"M  c #A2141C",
"N  c #AB101D",
"B  c #801624",
"V  c #84122B",
"C  c #9E1B23",
"Z  c #8C0C32",
"A  c #930736",
"S  c #920A33",
"D  c #97043A",
"F  c #9D003F",
"G  c #AC082C",
"H  c #B60C21",
"J  c #BC0A21",
"K  c #B1062D",
"L  c #B80728",
"P  c #A4003D",
"I  c #A9003B",
"U  c #BC0033",
"Y  c #8F2425",
"T  c #812821",
"R  c #853329",
"E  c #943031",
"W  c #A5272D",
"Q  c #C50723",
"!  c #CA0625",
"~  c #C10923",
"^  c #C4032B",
"/  c #C9002F",
"(  c #D30227",
")  c #D70029",
"_  c #DA0028",
"`  c #C20031",
"'  c #83433B",
"]  c #9E0040",
"[  c #866B57",
"{  c #8F7564",
"}  c #627A80",
"|  c #6B858C",
" . c #6E8991",
".. c #728E96",
"X. c #7997A1",
"o. c #7A98A1",
"O. c #8A8D8D",
"+. c #8A9799",
"@. c #8F9FA5",
"#. c #85A6B1",
"$. c #8BA7B1",
"%. c #8BADBA",
"&. c #8EB1BD",
"*. c #94B0B9",
"=. c #B9B2AE",
"-. c #94B6C3",
";. c #99B9C5",
":. c #99BECC",
">. c #9AC0CF",
",. c #9BC1D0",
"<. c #A1C5D4",
"1. c #B3D1DD",
"2. c #B3D3E0",
"3. c #B8D7E3",
"4. c #BDDBE7",
"5. c #C3DFEA",
"6. c #CEE1E7",
"7. c #D4E1E5",
"8. c #D7E6EA",
"9. c #DEF0F7",
"0. c #DFF4FD",
"q. c #E2F6FD",
"w. c #E6FAFF",
"e. c None",
/* pixels */
"e.e.e.e.e.e.e.e.e.e.e.. . . . . . . e.e.e.e.e.e.e.e.e.e.e.e.e.e.",
"e.e.e.e.e.e.e.e.e.e.= z z z z j j j * e.e.e.e.e.e.e.e.e.e.e.e.e.",
"e.e.e.e.e.e.e.e.* * M _ _ _ _ _ _ ) z * * e.e.e.e.e.e.e.e.e.e.e.",
"e.e.e.e.e.. . * Q ( ) _ _ _ _ _ _ _ ( ( m + O e.e.e.e.e.e.e.e.e.",
"e.e.e.e.. . = ~ _ _ _ _ _ _ _ ) _ _ _ _ ) n o . e.e.e.e.e.e.e.e.",
"e.e.e.e.. h H _ _ _ m k k k k z k k Q _ _ ) N * . e.e.e.e.e.e.e.",
"e.e.e.e.. M _ ) m n E r r r r u [ [ W n m _ _ j . e.e.e.e.e.e.e.",
"e.e.e.. + N _ J 4 3 a >.:.:.>.2.q.9.{ 9 R ! _ v + O o e.e.e.e.e.",
"e.e.e.O n ) n 5 @.*.;.>.,.,.>.3.q.q.8.7.=.: ~ ( c * J = e.e.e.e.",
"e.e.e.O ~ b ' +.:.>.,.>.,.,.>.,.3.0.w.w.6.O.R J N * ( J j e.e.e.",
"e.e.* v ! v r ,.,.>.>.,.,.,.,.>.,.4.5.5.4.;.0 N J v M ( c . e.e.",
"e.e.* ) _ z e *.>.,.,.,.,.>.,.,.,.,.>.,.:.$.0 N _ Q o J c . e.e.",
"e.e.* ! _ l 8 | -.>.,.,.,.,.>.,.,.,.,.,.%.f > N _ ~ + J c . e.e.",
"e.e.* ( _ v q g  .&.,.,.,.,.>.>.,.,.,.#.| f 3 N _ ~ o J c . e.e.",
"e.e.* ( _ v 7 g g ..o.o.o.o.o.X.o.o.o. .g f 2 N _ ! o J c . e.e.",
"e.e.* ( _ N 6 i g g g g g } g } } } } } f i T J _ ! o J c . e.e.",
"e.e.* ( _ _ m & p s f g } g g g } } d d y * ! _ _ ~ o H x . e.e.",
"e.e.* ! _ _ ) J & > w g g g g g g f q . ; ! ) _ _ Q o S , . e.e.",
"e.e.* ( _ _ _ ) m m Y 7 7 7 7 7 7 7 C J J _ _ ) _ Q o Z , . e.e.",
"e.e.* ( _ _ _ ) _ _ J l c l c l c c ! _ _ _ _ _ _ Q o Z , . e.e.",
"e.e.* ^ ) _ _ _ _ _ _ _ _ _ _ _ _ _ _ _ ) _ _ _ ) L # Z , . e.e.",
"e.e.# F / _ _ _ _ _ _ _ _ ) _ _ _ _ _ _ _ _ ) ) ` A @ S , . e.e.",
"e.e.# D P ` _ _ _ _ _ _ _ _ _ ) _ _ _ _ ) _ _ U P A @ Z , . e.e.",
"e.e.# F F I ` _ _ _ _ ! j j j j j j ~ _ _ ) U P ] A @ S , . e.e.",
"e.e.# ] ] F P ` ` ` ` K <   @ @ <   G ` ` U P ] ] A @ 1 < e.e.e.",
"e.e.# D ] ] F F F ] F F F ] < - F F F F F F F F ] A $ . e.e.e.e.",
"e.e.# D ] F F F F F F F F ] <   ] F ] F F F F F ] S $ e.e.e.e.e.",
"e.e.$ % A ] F F F ] F F F F <   F F F F F F ] ] Z # . e.e.e.e.e.",
"e.e.. O Z ] ] ] F ] ] F ] ] < - ] F ] ] ] ] ] ] V . . e.e.e.e.e.",
"e.e.e.O V Z Z Z Z Z Z Z Z Z - % Z Z Z Z Z Z Z Z , . e.e.e.e.e.e.",
"e.e.e.e.O O O O O O O O O O . O O O . O O O . $ $ e.e.e.e.e.e.e.",
"e.e.e.e.e.e.e.e.e.e.e.e.e.e.e.e.e.e.e.e.e.e.e.e.e.e.e.e.e.e.e.e."
};
