/* XPM */
static char *_399dc785b2a45fca8f9f12a076da91e7mRLMiaqwTfqdnYN[] = {
/* columns rows colors chars-per-pixel */
"32 32 255 2 ",
"   c None",
".  c #7E1F12",
"X  c #711E1C",
"o  c #731C1F",
"O  c #5B2B0A",
"+  c #5E2B0A",
"@  c #5B2D0B",
"#  c #5C2D0B",
"$  c #5D2D0B",
"%  c #5F2B0E",
"&  c #5D2C0C",
"*  c #5C2D0C",
"=  c #5E2C0C",
"-  c #5F2C0C",
";  c #5F3316",
":  c #6D270F",
">  c #602B0C",
",  c #602B0D",
"<  c #612B0D",
"1  c #622B0D",
"2  c #642A0D",
"3  c #67290E",
"4  c #602F0F",
"5  c #652712",
"6  c #662712",
"7  c #6E2610",
"8  c #6B2315",
"9  c #6A2316",
"0  c #6B2317",
"q  c #6C2317",
"w  c #692415",
"e  c #6A2415",
"r  c #632910",
"t  c #6D2119",
"y  c #762311",
"u  c #742312",
"i  c #772312",
"p  c #762313",
"a  c #702510",
"s  c #742411",
"d  c #752411",
"f  c #762411",
"g  c #782312",
"h  c #7D2113",
"j  c #62381B",
"k  c #63381C",
"l  c #63391C",
"z  c #683B1E",
"x  c #683C1F",
"c  c #693C1F",
"v  c #7D1625",
"b  c #7E1527",
"n  c #7A1823",
"m  c #7F1428",
"M  c #623C27",
"N  c #673D24",
"B  c #663E24",
"V  c #693D20",
"C  c #663D2B",
"Z  c #713824",
"A  c #743C2A",
"S  c #693F30",
"D  c #5F402A",
"F  c #5D422B",
"G  c #5D422C",
"H  c #5D432C",
"J  c #5E422C",
"K  c #5D4733",
"L  c #5C4834",
"P  c #6C4228",
"I  c #614C38",
"U  c #6F5E4D",
"Y  c #71604F",
"T  c #706150",
"R  c #617071",
"E  c #627173",
"W  c #667271",
"Q  c #62787D",
"!  c #62797E",
"~  c #62797F",
"^  c #821E12",
"/  c #811F14",
"(  c #821F14",
")  c #871D15",
"_  c #851E15",
"`  c #8E1814",
"'  c #8E1B17",
"]  c #8F1B17",
"[  c #8B1D15",
"{  c #8A1C16",
"}  c #8B1C16",
"|  c #8C1C16",
" . c #901714",
".. c #901815",
"X. c #901915",
"o. c #911915",
"O. c #901A17",
"+. c #95151E",
"@. c #9A1518",
"#. c #9B1518",
"$. c #991618",
"%. c #981719",
"&. c #9A161A",
"*. c #971819",
"=. c #AE0F1E",
"-. c #B60B1F",
";. c #B20C1E",
":. c #B30C1E",
">. c #B20D1E",
",. c #B30D1F",
"<. c #B30E1F",
"1. c #B40C1E",
"2. c #A01319",
"3. c #A7101A",
"4. c #A0141B",
"5. c #A1141B",
"6. c #A2141B",
"7. c #A7111E",
"8. c #AA111D",
"9. c #AB111D",
"0. c #AE101E",
"q. c #891424",
"w. c #811328",
"e. c #85112B",
"r. c #801428",
"t. c #811428",
"y. c #84112C",
"u. c #85112C",
"i. c #86102D",
"p. c #8A1129",
"a. c #8D0B32",
"s. c #8B0D30",
"d. c #8B0C31",
"f. c #8B0D31",
"g. c #8C0C31",
"h. c #9B0537",
"j. c #960539",
"k. c #940638",
"l. c #950638",
"z. c #97053A",
"x. c #9B013E",
"c. c #9C003F",
"v. c #9D003F",
"b. c #9E003F",
"n. c #A80A2B",
"m. c #B70C20",
"M. c #B60D20",
"N. c #BF0A21",
"B. c #BC0D24",
"V. c #AA1321",
"C. c #A81420",
"Z. c #A2003D",
"A. c #A0003E",
"S. c #A6003D",
"D. c #A7003D",
"F. c #AC0039",
"G. c #AD0039",
"H. c #B20135",
"J. c #B40036",
"K. c #BF0032",
"L. c #BB0035",
"P. c #BD0034",
"I. c #CF0325",
"U. c #CB0525",
"Y. c #C90624",
"T. c #CA0624",
"R. c #CC0525",
"E. c #CF0426",
"W. c #C00922",
"Q. c #C40528",
"!. c #C6002F",
"~. c #C7002F",
"^. c #D10326",
"/. c #D20226",
"(. c #D30227",
"). c #D40127",
"_. c #D50127",
"`. c #D60127",
"'. c #D40227",
"]. c #DA0027",
"[. c #D70128",
"{. c #D60029",
"}. c #D5002A",
"|. c #D80028",
" X c #D90028",
".X c #DA0028",
"XX c #DB0028",
"oX c #DA0029",
"OX c #DB0029",
"+X c #D8002A",
"@X c #DC0029",
"#X c #DD0029",
"$X c #C20031",
"%X c #C30031",
"&X c #C50030",
"*X c #C40031",
"=X c #83473F",
"-X c #9C0040",
";X c #9D0040",
":X c #9E0040",
">X c #9F0040",
",X c #9F0041",
"<X c #627A80",
"1X c #627A81",
"2X c #627B81",
"3X c #657D83",
"4X c #677E84",
"5X c #667F86",
"6X c #687F85",
"7X c #688086",
"8X c #738F98",
"9X c #78959F",
"0X c #7D9BA6",
"qX c #8A999B",
"wX c #A89C92",
"eX c #AFA79F",
"rX c #8AA0A6",
"tX c #90A2A8",
"yX c #91A8AF",
"uX c #87A9B4",
"iX c #88A9B5",
"pX c #89ABB7",
"aX c #8BADBA",
"sX c #91A9B0",
"dX c #94AAB1",
"fX c #94AFB9",
"gX c #94B0BA",
"hX c #93B6C4",
"jX c #93B8C6",
"kX c #93B9C7",
"lX c #97BCCA",
"zX c #98BCCB",
"xX c #99BECB",
"cX c #98BECC",
"vX c #9BC0CF",
"bX c #9BC1D0",
"nX c #9BC1D1",
"mX c #9BC2D1",
"MX c #9BC2D2",
"NX c #9CC2D1",
"BX c #9DC3D1",
"VX c #9CC2D2",
"CX c #9CC3D2",
"ZX c #9DC3D2",
"AX c #9CC3D3",
"SX c #9FC5D4",
"DX c #BDD0D6",
"FX c #BEDBE7",
"GX c #C0CBCE",
"HX c #CFD8DA",
"JX c #C8E3EE",
"KX c #D6E2E6",
"LX c #C9E5F0",
"PX c #D5EEF8",
"IX c #E8FCFF",
/* pixels */
"                        @ @ @ @ @ @ @                           ",
"                      s ' ' O.X.O.O.O.(                         ",
"                  s s } `.oX].oXoX].oX8.7 >                     ",
"                - =././.oX].oX`.].oXoX[.m.3 *                   ",
"        * * - - - M.oXoX[.].].oX[.oX].oX/.m.: #                 ",
"      2 %.h @ 2 %.T.oX].oXoX[.].oX].#X].oXoX=.i *               ",
"      ) Y.*.3 ' I.oX].oX].[.`.oX/.-.,.;.,.;.-.. O               ",
"    s E.E.' ( `.].oX[.[.].oXoX`.B.Z B B B B B P z *             ",
"    s E.) 2 ( [.oX].oX`.`.oX].,.A tXgXfXgXgXgXDXwX>             ",
"    s T.g } N.oX`.oX].oXoX].3.=XqXxXVXmXmXmXBXJXKXeXc           ",
"    i E.g 5.#X`.oX`.oX`.].oX' T VXmXmXvXmXvXmXJXIXHXV           ",
"    i T.g 5.oXoX].oX].oX].]. .Y cXmXvXmXvXmXvXFXPXGXV           ",
"    i Y.i #.oX].oX`.oX].oX]. .U cXVXvXvXmXvXmXBXSXdXl           ",
"    i E.g 6.].oX].oX`.oX`.oX .I 8XzXmXmXvXvXvXmXVXyXl           ",
"    i T.g #.#XoXoX].oX].oX].X.K 3X9XhXVXVXVXvXVXVXyXl           ",
"    i T.g 6.#XoX`.oX`.oX].oX' K <X~ 0XiXuXpXcXVXVXsXl           ",
"    s Q.p 6.oX].[.].].oXoXoX&.P R <X<X<X~ 5XaXhXkXrXk           ",
"    0 h.t #.oXoXoXoX[.[.[.[.}.7.M R ~ ~ Q ~ 5X6X7XW ;           ",
"    0 l.q q.P.].].[.oX].oXoXoXI.V.C J J F J F F J P             ",
"    0 z.0 m S.%X[.oX[.].oX[.].oX/.2.$.%.$.$.$.%.^ O             ",
"    0 z.0 r.c.A.&X[.oXoXoX].[.[.].oX].oX].#XoX#X9.-             ",
"    0 z.0 r.,Xc.c.~.oX].[.].oX].oX].oX[.oX].oXoX8.*             ",
"    0 k.0 r.>Xc.c.!.].[.].oX].oX].oX].].`.oX].L.p.-             ",
"    0 l.q r.,Xc.c.F.&X].oX].oXN.} } } } +.H.H.S.y.-             ",
"    0 z.0 y.c.c.c.,XG.&X%X%X&Xn.t > t o v c.c.,Xy.-             ",
"    0 a.w v c.c.c.c.c.c.c.c.c.,Xz.6 a.c.c.c.c.c.y.-             ",
"      r > t.A.c.c.c.x.,Xc.A.,XA.z.6 s.c.c.c.c.,Xy.*             ",
"        # t.>Xc.c.c.c.x.c.c.c.c.k.6 a.c.,XA.x.,Xy.O             ",
"        # t.>X>X,X,X,X,X,X,X,X,Xk.6 f.,X,X,X,X,Xi.*             ",
"        # n a.a.d.d.f.d.f.f.f.f.i.6 r.a.f.a.f.f.v >             ",
"          > > > 2 * - 2 - - > > >   > > > > > > >               ",
"                                                                "
};
