/* XPM */
static char *result[] = {
/* columns rows colors chars-per-pixel */
"32 32 103 2 ",
"   c #010000",
".  c #0C0000",
"X  c #050708",
"o  c #0A0C0D",
"O  c #150100",
"+  c #1D0100",
"@  c #0C1113",
"#  c #0F1618",
"$  c #141414",
"%  c #101719",
"&  c #131B1E",
"*  c #1D1F1F",
"=  c #240100",
"-  c #2B0000",
";  c #340100",
":  c #3B0100",
">  c #151E21",
",  c #172125",
"<  c #1B272B",
"1  c #222121",
"2  c #20272A",
"3  c #2C2C2D",
"4  c #26353A",
"5  c #28373C",
"6  c #29383E",
"7  c #3C3C3C",
"8  c #420100",
"9  c #4D0100",
"0  c #520100",
"q  c #5F0100",
"w  c #620100",
"e  c #6D0300",
"r  c #730200",
"t  c #7C0100",
"y  c #31444B",
"u  c #375058",
"i  c #3D535B",
"p  c #525252",
"a  c #435D67",
"s  c #4E6972",
"d  c #626262",
"f  c DimGray",
"g  c #7A7B7B",
"h  c #830100",
"j  c #8C0100",
"k  c #940100",
"l  c #990000",
"z  c #A30100",
"x  c #AC0000",
"c  c #B60100",
"v  c #BC0000",
"b  c #C30000",
"n  c #CC0000",
"m  c #D40000",
"M  c #D90000",
"N  c #527581",
"B  c #587A87",
"V  c #6A858F",
"C  c #678C9A",
"Z  c #6A909F",
"A  c #6C96A5",
"S  c #7A99A5",
"D  c #729EAE",
"F  c #78A3B3",
"G  c #7CA9BA",
"H  c #838486",
"J  c #868888",
"K  c #8D8D8D",
"L  c #939393",
"P  c gray61",
"I  c #839EA9",
"U  c #A3A4A5",
"Y  c #AAACAC",
"T  c #B5B5B6",
"R  c #B6B7B8",
"E  c #BABBBD",
"W  c #84B5C7",
"Q  c #8FC3D6",
"!  c #91C6D9",
"~  c #95CBDF",
"^  c #AAC1C9",
"/  c #B9CED6",
"(  c #96CCE0",
")  c #98CFE3",
"_  c #9BD0E4",
"`  c #A5D3E4",
"'  c #B5DBE9",
"]  c #BCDEEB",
"[  c #C3C3C4",
"{  c gray80",
"}  c #CED0D2",
"|  c #D4D4D4",
" . c #D5D7D8",
".. c #DADBDD",
"X. c #DCEFF6",
"o. c #E2E2E2",
"O. c #EBECED",
"+. c #ECEEF0",
"@. c #ECF7FB",
"#. c gray97",
"$. c #F7FBFD",
"%. c #FBFBFB",
"&. c None",
/* pixels */
"&.&.&.&.&.&.&.&.&.&.&.&.&.&.      &.&.&.&.&.&.&.&.&.&.&.&.&.&.&.",
"&.&.&.&.&.&.&.&.&.&.&.&.$ 7 p d d p $ &.&.&.&.&.&.&.&.&.&.&.&.&.",
"&.&.&.&.&.&.&.&.&.&.&.o L | L L L { f X &.&.&.&.&.&.&.&.&.&.&.&.",
"&.&.&.&.&.&.&.&.&.&.&.1 U E Y P g U Y $ &.&.&.&.&.&.&.&.&.&.&.&.",
"&.&.&.&.&.&.&.&.&.&.&.1 | +.O.| T O.| 1 &.&.&.&.&.&.&.&.&.&.&.&.",
"&.&.&.&.&.&.&.&.&.&.&.$ [ #.#.| ^ O. .3 &.&.&.&.&.&.&.&.&.&.&.&.",
"&.&.&.&.&.&.&.&.&.&.&.o T %.#...E +...3 &.&.&.&.&.&.&.&.&.&.&.&.",
"&.&.&.&.&.&.&.&.&.&.&.. U %.#.o.R +...3   &.&.&.&.&.&.&.&.&.&.&.",
"&.&.&.&.&.&.&.&.&.&.&.  J %.%.O.R O.U $       &.&.&.&.&.&.&.&.&.",
"&.&.&.&.&.&.&.&.&.&.&.  1 f J g g J > % #       &.&.&.&.&.&.&.&.",
"&.&.&.&.&.&.&.&.&.&.  . r t :   $ < I / ^ V >     &.&.&.&.&.&.&.",
"&.&.&.&.&.&.&.&.&.    9 m m 9   o s X.%.%.@.S #   &.&.&.&.&.&.&.",
"&.&.&.&.&.&.&.&.&.  . l M z . o C ! ' @.%.%.' a     &.&.&.&.&.&.",
"&.&.&.&.&.&.&.&.&.  - b M r   5 Q ( ~ ` ] ' ) A X   &.&.&.&.&.&.",
"&.&.&.&.&.&.&.      9 m m 0   i ~ ~ ~ ~ ~ ~ ) F o   &.&.&.&.&.&.",
"&.&.&.&.&.&.    O   w m m 9   y Q ) ~ ~ ~ ~ ( G @   &.&.&.&.&.&.",
"&.&.&.&.&.&.  0 r   e M m q   , A ~ ~ ~ ~ ~ ( A X   &.&.&.&.&.&.",
"&.&.&.&.&.    k t   t m m h   X i D Q ~ ( ~ W 6     &.&.&.&.&.&.",
"&.&.&.&.&.  O r 0   h M m v -   % u N A A B 4     &.&.&.&.&.&.&.",
"&.&.&.&.&.  = e :   j M m m l O   X % < , o       &.&.&.&.&.&.&.",
"&.&.&.&.&.  ; e :   r m m m m k -               &.&.&.&.&.&.&.&.",
"&.&.&.&.&.  ; r ;   w b m m m m b k w 0 w t =   &.&.&.&.&.&.&.&.",
"&.&.&.&.&.  ; r :   0 k n m m m m m m m m n -   &.&.&.&.&.&.&.&.",
"&.&.&.&.&.  - r 8   9 r k n m m n n m m M x .     &.&.&.&.&.&.&.",
"&.&.&.&.&.  + e 8   0 e h n m n q ; h b n v 8 + .   &.&.&.&.&.&.",
"&.&.&.&.&.    8 :   9 r t b m m t O   8 j n n b r     &.&.&.&.&.",
"&.&.&.&.&.&.        ; r r j c n m x -   q c n n k     &.&.&.&.&.",
"&.&.&.&.&.&.&.        : e e r h z m h   : r h t :   &.&.&.&.&.&.",
"&.&.&.&.&.&.&.&.&.&.    - w e e t v q   . O O O     &.&.&.&.&.&.",
"&.&.&.&.&.&.&.&.&.&.&.    . - ; : ;               &.&.&.&.&.&.&.",
"&.&.&.&.&.&.&.&.&.&.&.&.              &.&.&.&.&.&.&.&.&.&.&.&.&.",
"&.&.&.&.&.&.&.&.&.&.&.&.&.&.&.      &.&.&.&.&.&.&.&.&.&.&.&.&.&."
};
