/* XPM */
static char *result[] = {
/* columns rows colors chars-per-pixel */
"32 32 234 2 ",
"   c #1C0707",
".  c #1F0606",
"X  c #1D0B0B",
"o  c #161414",
"O  c #191919",
"+  c #1F1E1E",
"@  c gray12",
"#  c #310A0A",
"$  c #340E0E",
"%  c #350E0E",
"&  c #3B0B0B",
"*  c #201F1F",
"=  c #211F1F",
"-  c #301818",
";  c #381919",
":  c #232626",
">  c gray14",
",  c #242626",
"<  c #242727",
"1  c #252727",
"2  c #242828",
"3  c #252828",
"4  c #262828",
"5  c #262929",
"6  c #392222",
"7  c #312B2B",
"8  c #322E2E",
"9  c #3E2E2E",
"0  c #2F3232",
"q  c #3E3737",
"w  c #353838",
"e  c #353939",
"r  c #363838",
"t  c #363939",
"y  c #3A3939",
"u  c #3D3E3E",
"i  c #590000",
"p  c #690707",
"a  c #710000",
"s  c #730000",
"d  c #750000",
"f  c #790000",
"g  c #7A0000",
"h  c #7B0000",
"j  c #492C2C",
"k  c #582828",
"l  c #4A3535",
"z  c #4C3636",
"x  c #433C3C",
"c  c #503B3B",
"v  c #533A3A",
"b  c #523B3B",
"n  c #533B3B",
"m  c #503C3C",
"M  c #513C3C",
"N  c #513D3D",
"B  c #523C3C",
"V  c #533C3C",
"C  c #533D3D",
"Z  c #523E3E",
"A  c #593838",
"S  c #464747",
"D  c #4B4E4E",
"F  c gray30",
"G  c #505050",
"H  c #515151",
"J  c #525151",
"K  c #515252",
"L  c gray32",
"P  c #535353",
"I  c #545353",
"U  c #535555",
"Y  c gray33",
"T  c #555454",
"R  c #555555",
"E  c #565555",
"W  c #555757",
"Q  c #565656",
"!  c #575656",
"~  c #565757",
"^  c gray34",
"/  c #585757",
"(  c #575959",
")  c #585858",
"_  c #595858",
"`  c gray35",
"'  c #5A5959",
"]  c #5A5A5A",
"[  c #5B5A5A",
"{  c gray36",
"}  c #5D5C5C",
"|  c #5D5D5D",
" . c #5E5D5D",
".. c gray37",
"X. c #5F5E5E",
"o. c #5F5F5F",
"O. c #6B4141",
"+. c #605151",
"@. c #605F5F",
"#. c #626161",
"$. c #606262",
"%. c #626262",
"&. c #636262",
"*. c #646363",
"=. c #656464",
"-. c #666565",
";. c #656767",
":. c #676666",
">. c #676767",
",. c #686868",
"<. c #696868",
"1. c #6A6969",
"2. c #6B6A6A",
"3. c #6C6B6B",
"4. c #6B6C6C",
"5. c #6D6C6C",
"6. c #6E6D6D",
"7. c #6F6E6E",
"8. c #6D7070",
"9. c #717070",
"0. c #727171",
"q. c #737171",
"w. c #747373",
"e. c #757474",
"r. c #767575",
"t. c #777575",
"y. c #777676",
"u. c #787676",
"i. c #787777",
"p. c #797777",
"a. c #797878",
"s. c #7A7878",
"d. c #797A7A",
"f. c #797B7B",
"g. c #7B7A7A",
"h. c #7C7A7A",
"j. c #7D7B7B",
"k. c #7D7C7C",
"l. c #7E7C7C",
"z. c #7E7D7D",
"x. c #7F7D7D",
"c. c #7F7E7E",
"v. c #850000",
"b. c #860000",
"n. c #870000",
"m. c #880000",
"M. c #8B0000",
"N. c #8C0000",
"B. c #8D0000",
"V. c #8F0000",
"C. c #920000",
"Z. c #930000",
"A. c #9B0000",
"S. c #9D0000",
"D. c #9F0000",
"F. c #990404",
"G. c #A30000",
"H. c #A40000",
"J. c #A60000",
"K. c #A90000",
"L. c #B40000",
"P. c #B60000",
"I. c #BF0606",
"U. c #C20000",
"Y. c #C90000",
"T. c #CD0000",
"R. c #CE0000",
"E. c #CF0000",
"W. c #D00000",
"Q. c #D10000",
"!. c #D20000",
"~. c #D30000",
"^. c #D40000",
"/. c #D50000",
"(. c #DA0000",
"). c #DE0000",
"_. c #E00000",
"`. c #E40000",
"'. c #E50000",
"]. c #E90000",
"[. c #F20000",
"{. c #F60000",
"}. c #F90000",
"|. c #FA0000",
" X c #FB0000",
".X c #FD0000",
"XX c #FE0000",
"oX c red",
"OX c #807E7E",
"+X c #807F7F",
"@X c #817F7F",
"#X c #7F8282",
"$X c #818080",
"%X c #828080",
"&X c #828181",
"*X c #838181",
"=X c #838282",
"-X c #848282",
";X c #848383",
":X c #858383",
">X c #858484",
",X c #868484",
"<X c #878585",
"1X c #868686",
"2X c #878686",
"3X c #888686",
"4X c #888787",
"5X c #898787",
"6X c #888989",
"7X c #8A8888",
"8X c #8C8A8A",
"9X c #8D8B8B",
"0X c #8E8C8C",
"qX c #8E8D8D",
"wX c #8F8D8D",
"eX c #8F8E8E",
"rX c #908E8E",
"tX c #918F8F",
"yX c #929090",
"uX c #939191",
"iX c #919292",
"pX c #939292",
"aX c #949292",
"sX c #959393",
"dX c gray58",
"fX c #959494",
"gX c #959595",
"hX c #969494",
"jX c #969595",
"kX c #979595",
"lX c #989696",
"zX c #999696",
"xX c #999797",
"cX c None",
/* pixels */
"cXcXcXcXcXcXcXcXcXcXcXcXcXcXcXcXcXcXcXcXcXcXcXcXcXcXcXcXcXcXcXcX",
"cXcXcXcXcXcXcXcXcXcXcXcXcXcXcXcXcXcXcXcXcXcXcXcXcXcXcXcXcXcXcXcX",
"cXcXcXcXcXcXcXcXcXcXcXcXcXcXcXcXcXcXcXcXcXcXcXcXcXcXcXcXcXcXcXcX",
"cXcXcXcXcXcXcXcXcXcXcXcXcXcXcXcXcXcXcXcXcXcXcXcXcXcXcXcXcXcXcXcX",
"cXcXcXcXcXcXcXcXcXcXcXcXcXcXcXcXcXcXcXcXcXcXcXcXcXcXcXcXcXcXcXcX",
"cXcXcXcXcXcXcXcXcXcXcXcXcXcXcXcXcXcXcXcXcXcXcXcXcXcXcXcXcXcXcXcX",
"cXcXcXcXcXoXoXoXoXoXoXoXoXoXoXoXoXoXoXoXoXoXoXoXoXoXoXcXcXcXcXcX",
"cXcXcXoX`.D.v.n.b.n.b.b.b.v.b.n.V.C.C.Z.A.G.G.H.G.J.W. XoXcXcXcX",
"cXcX{.A.& = : < : 3 5 5 3 < 2 3 5 4 1 4 > + @ * @ O   i U..XcXcX",
"cX.Xm.7 D X.8XyXtXyXyXyXyXtXyXyXyXyXyXyXtX0X0X0X0X7X>.0 X Z.XXcX",
"cX'.% f.p.5.8XrXtXtXrXrXrXrXrXrXrXrXeXwX9X8X8X9XwXsXu.) U . E.oX",
"cX).; 6XrX:.| @.%.#.@.o.@.@.o.@.o.o.X. .{ [ [ [ ] &.i.@X9X, v.oX",
"cX^.6 qXtXh.z.OXc.+X@X+X+X@X@X@X@X$X+X@X*X=X;X*X@Xs.l.lXsX0 g oX",
"cXY.9 uXl.' G G H L L L L L H H H H H J P P I Y Y T  .<XkXw f oX",
"oXP.q sX7.} 3.i.x.x.k.h.h.g.y.t.e.9.e.t.e.e.r.0.9.9.6.-XkXt f oX",
"oXS.y hXaX9X5X:X=X@X+XOX+X@X+XOXOX+X+X@X+Xz.h.g.g.g.l.7XhXt f oX",
"oXB.u lX<X,.3.2.1.<.<.,.<.<.<.<.<.:.&.&.*.&.&.@. .....-.rXt d oX",
"oXM.S zX0X3X8X3X<X4X2X3X3X3X4X3X<X;X*X*X-X-X*X$Xk.z.4XrXsXe a oX",
"oXN.K sXq.=.X.[ ' ' ` ] ] ] ] ] ` ) ) ) ) _ ) / Q ! _ j.kXe a oX",
"oXN.~ aX%X0XrXwXwXwXwXwXwXrXwXwXwXwXrXrXwXrXrXrXrXtX+Xu.hXr h oX",
"oXN.W xXyX5X>X<X<X,X>X:X%X%X&X*X$X$X%X%X&X$X$X$X@X$X;XtXpX8 K.oX",
"oXZ.Y rXX.R ^ _ _ / / / Q E ! ^ ! Q Q Y I P I P L J F 5.1X- Q.cX",
"oXL.x 9Xr.*X9X0X0X0X0X0XwX0XwXwXwXwXwX9X8X8X8X8X7X:Xa.7.8.p }.cX",
"cX_.# ;.w.{ 0XkXkXkXkXkXkXkXkXkXkXkXkXkXkXkXkXlXy.) ,XiXO.E.cXcX",
"cXoXV.o ( 4.eXdXfXgXfXgXgXfXgXgXjXgXgXfXfXgXfXjXd.$.#X+.I.oXcXcX",
"cXcX[.s $ j l z c C B V C M m N Z N M b b B V n v A k F.}.cXcXcX",
"cXcXcX|.'.(.E.Q.W.W.W.!.Q.E.T.T.T.T.R.Q.Q.W.~.~./.).].oXcXcXcXcX",
"cXcXcXcXcXcXcXcXcXcXcXcXcXcXcXcXcXcXcXcXcXcXcXcXcXcXcXcXcXcXcXcX",
"cXcXcXcXcXcXcXcXcXcXcXcXcXcXcXcXcXcXcXcXcXcXcXcXcXcXcXcXcXcXcXcX",
"cXcXcXcXcXcXcXcXcXcXcXcXcXcXcXcXcXcXcXcXcXcXcXcXcXcXcXcXcXcXcXcX",
"cXcXcXcXcXcXcXcXcXcXcXcXcXcXcXcXcXcXcXcXcXcXcXcXcXcXcXcXcXcXcXcX",
"cXcXcXcXcXcXcXcXcXcXcXcXcXcXcXcXcXcXcXcXcXcXcXcXcXcXcXcXcXcXcXcX"
};
